<svg width="296" height="331" viewBox="0 0 296 331" fill="none" xmlns="http://www.w3.org/2000/svg">
<path d="M29.4396 228.481V68.4478L1 85.8007V245.834L149.464 330.671L295.519 245.834V85.8007L268.525 68.4478V228.481L149.464 297.893L29.4396 228.481Z" fill="#01680D" stroke="#02693A"/>
<path d="M55.9502 51.5769L148.017 0L242.013 51.5769V85.3189L148.982 33.7419L55.9502 85.3189V51.5769Z" fill="#7EF20A"/>
<path d="M55.9502 115.205L148.017 63.6276L242.013 115.205V148.946L148.982 97.3695L55.9502 148.946V115.205Z" fill="#59B100"/>
<path d="M55.9502 178.832L148.017 127.255L242.013 178.832V212.574L163.924 167.745V288.734L148.982 299.821L132.593 288.734V167.745L55.9502 212.574V178.832Z" fill="#01680D"/>
</svg>
