<svg width="90" height="89" viewBox="0 0 90 89" fill="none" xmlns="http://www.w3.org/2000/svg">
<g clip-path="url(#clip0_57_758)">
<path d="M56.4375 18.5416C60.1003 19.2483 63.4664 21.0197 66.1052 23.6292C68.744 26.2387 70.5354 29.5674 71.25 33.1895M56.4375 3.70825C64.0473 4.54424 71.1435 7.91415 76.5609 13.2647C81.9783 18.6152 85.395 25.6282 86.25 33.1524M82.5 62.7449V73.8699C82.5042 74.9027 82.2903 75.925 81.8719 76.8712C81.4535 77.8175 80.8399 78.667 80.0703 79.3652C79.3007 80.0634 78.3921 80.5949 77.4028 80.9258C76.4135 81.2567 75.3651 81.3795 74.325 81.2866C62.7856 80.0467 51.7012 76.1474 41.9625 69.902C32.9018 64.2085 25.22 56.612 19.4625 47.652C13.1249 37.9777 9.1809 26.9632 7.94999 15.5008C7.85628 14.4753 7.97952 13.4417 8.31187 12.4659C8.64422 11.4901 9.17838 10.5935 9.88037 9.83301C10.5823 9.07255 11.4368 8.46497 12.3892 8.04894C13.3417 7.63291 14.3713 7.41755 15.4125 7.41659H26.6625C28.4824 7.39887 30.2467 8.03617 31.6266 9.20969C33.0065 10.3832 33.9078 12.0129 34.1625 13.7949C34.6373 17.3552 35.5179 20.8509 36.7875 24.2153C37.292 25.5426 37.4012 26.9851 37.1021 28.3719C36.8031 29.7587 36.1082 31.0317 35.1 32.0399L30.3375 36.7495C35.6758 46.0335 43.4492 53.7205 52.8375 58.9995L57.6 54.2899C58.6196 53.2929 59.9068 52.6058 61.3092 52.31C62.7116 52.0143 64.1703 52.1222 65.5125 52.6212C68.9148 53.8766 72.4497 54.7474 76.05 55.217C77.8716 55.4711 79.5353 56.3785 80.7245 57.7665C81.9137 59.1544 82.5456 60.9263 82.5 62.7449Z" stroke="#318930" stroke-width="6" stroke-linecap="round" stroke-linejoin="round"/>
</g>
<defs>
<clipPath id="clip0_57_758">
<rect width="90" height="89" fill="white"/>
</clipPath>
</defs>
</svg>
